<mxfile host="www.draw.io" modified="2023-04-07T22:19:09.153Z" agent="Mozilla/5.0 (Windows NT 10.0; Win64; x64) AppleWebKit/537.36 (KHTML, like Gecko) Chrome/111.0.0.0 Safari/537.36" etag="uMLNc9MwU0eSI2R7__Uj" version="21.1.5" type="device">
  <diagram name="Страница 1" id="F0txiqTwXhWi8OJmvDTF">
    <mxGraphModel dx="989" dy="549" grid="1" gridSize="10" guides="1" tooltips="1" connect="1" arrows="1" fold="1" page="1" pageScale="1" pageWidth="827" pageHeight="1169" math="0" shadow="0">
      <root>
        <mxCell id="0" />
        <mxCell id="1" parent="0" />
        <mxCell id="P8RNLkXZRYdzx4F_NjcB-25" value="" style="rounded=0;whiteSpace=wrap;html=1;fillColor=none;" vertex="1" parent="1">
          <mxGeometry x="170" y="190" width="340" height="220" as="geometry" />
        </mxCell>
        <mxCell id="P8RNLkXZRYdzx4F_NjcB-14" style="rounded=0;orthogonalLoop=1;jettySize=auto;html=1;entryX=0;entryY=0.5;entryDx=0;entryDy=0;" edge="1" parent="1" source="P8RNLkXZRYdzx4F_NjcB-1" target="P8RNLkXZRYdzx4F_NjcB-5">
          <mxGeometry relative="1" as="geometry" />
        </mxCell>
        <mxCell id="P8RNLkXZRYdzx4F_NjcB-15" style="rounded=0;orthogonalLoop=1;jettySize=auto;html=1;entryX=0;entryY=0.5;entryDx=0;entryDy=0;" edge="1" parent="1" source="P8RNLkXZRYdzx4F_NjcB-1" target="P8RNLkXZRYdzx4F_NjcB-6">
          <mxGeometry relative="1" as="geometry" />
        </mxCell>
        <mxCell id="P8RNLkXZRYdzx4F_NjcB-16" style="rounded=0;orthogonalLoop=1;jettySize=auto;html=1;entryX=0;entryY=0.5;entryDx=0;entryDy=0;" edge="1" parent="1" source="P8RNLkXZRYdzx4F_NjcB-1" target="P8RNLkXZRYdzx4F_NjcB-7">
          <mxGeometry relative="1" as="geometry" />
        </mxCell>
        <mxCell id="P8RNLkXZRYdzx4F_NjcB-17" style="rounded=0;orthogonalLoop=1;jettySize=auto;html=1;entryX=0;entryY=0.5;entryDx=0;entryDy=0;" edge="1" parent="1" source="P8RNLkXZRYdzx4F_NjcB-1" target="P8RNLkXZRYdzx4F_NjcB-8">
          <mxGeometry relative="1" as="geometry" />
        </mxCell>
        <mxCell id="P8RNLkXZRYdzx4F_NjcB-1" value="Гость" style="shape=umlActor;verticalLabelPosition=bottom;verticalAlign=top;html=1;outlineConnect=0;" vertex="1" parent="1">
          <mxGeometry x="120" y="240" width="30" height="60" as="geometry" />
        </mxCell>
        <mxCell id="P8RNLkXZRYdzx4F_NjcB-18" style="rounded=0;orthogonalLoop=1;jettySize=auto;html=1;entryX=1;entryY=0.5;entryDx=0;entryDy=0;" edge="1" parent="1" source="P8RNLkXZRYdzx4F_NjcB-2" target="P8RNLkXZRYdzx4F_NjcB-9">
          <mxGeometry relative="1" as="geometry" />
        </mxCell>
        <mxCell id="P8RNLkXZRYdzx4F_NjcB-19" style="rounded=0;orthogonalLoop=1;jettySize=auto;html=1;entryX=1;entryY=0.5;entryDx=0;entryDy=0;" edge="1" parent="1" source="P8RNLkXZRYdzx4F_NjcB-2" target="P8RNLkXZRYdzx4F_NjcB-10">
          <mxGeometry relative="1" as="geometry" />
        </mxCell>
        <mxCell id="P8RNLkXZRYdzx4F_NjcB-20" style="rounded=0;orthogonalLoop=1;jettySize=auto;html=1;entryX=1;entryY=0.5;entryDx=0;entryDy=0;" edge="1" parent="1" source="P8RNLkXZRYdzx4F_NjcB-2" target="P8RNLkXZRYdzx4F_NjcB-11">
          <mxGeometry relative="1" as="geometry" />
        </mxCell>
        <mxCell id="P8RNLkXZRYdzx4F_NjcB-21" style="rounded=0;orthogonalLoop=1;jettySize=auto;html=1;entryX=1;entryY=0.5;entryDx=0;entryDy=0;" edge="1" parent="1" source="P8RNLkXZRYdzx4F_NjcB-2" target="P8RNLkXZRYdzx4F_NjcB-12">
          <mxGeometry relative="1" as="geometry" />
        </mxCell>
        <mxCell id="P8RNLkXZRYdzx4F_NjcB-23" style="edgeStyle=orthogonalEdgeStyle;rounded=0;orthogonalLoop=1;jettySize=auto;html=1;entryX=0.5;entryY=0.5;entryDx=0;entryDy=0;entryPerimeter=0;" edge="1" parent="1" source="P8RNLkXZRYdzx4F_NjcB-2" target="P8RNLkXZRYdzx4F_NjcB-1">
          <mxGeometry relative="1" as="geometry">
            <Array as="points">
              <mxPoint x="545" y="120" />
              <mxPoint x="135" y="120" />
            </Array>
          </mxGeometry>
        </mxCell>
        <mxCell id="P8RNLkXZRYdzx4F_NjcB-2" value="Администратор" style="shape=umlActor;verticalLabelPosition=bottom;verticalAlign=top;html=1;outlineConnect=0;" vertex="1" parent="1">
          <mxGeometry x="540" y="250" width="30" height="60" as="geometry" />
        </mxCell>
        <mxCell id="P8RNLkXZRYdzx4F_NjcB-5" value="Просмотр главной страницы" style="ellipse;whiteSpace=wrap;html=1;" vertex="1" parent="1">
          <mxGeometry x="200" y="200" width="120" height="40" as="geometry" />
        </mxCell>
        <mxCell id="P8RNLkXZRYdzx4F_NjcB-6" value="Поиск слов" style="ellipse;whiteSpace=wrap;html=1;" vertex="1" parent="1">
          <mxGeometry x="200" y="250" width="120" height="40" as="geometry" />
        </mxCell>
        <mxCell id="P8RNLkXZRYdzx4F_NjcB-7" value="Просмотр определения слова" style="ellipse;whiteSpace=wrap;html=1;" vertex="1" parent="1">
          <mxGeometry x="200" y="300" width="120" height="40" as="geometry" />
        </mxCell>
        <mxCell id="P8RNLkXZRYdzx4F_NjcB-8" value="Написание комментария" style="ellipse;whiteSpace=wrap;html=1;" vertex="1" parent="1">
          <mxGeometry x="200" y="350" width="120" height="40" as="geometry" />
        </mxCell>
        <mxCell id="P8RNLkXZRYdzx4F_NjcB-9" value="Добавление слова" style="ellipse;whiteSpace=wrap;html=1;" vertex="1" parent="1">
          <mxGeometry x="360" y="200" width="120" height="40" as="geometry" />
        </mxCell>
        <mxCell id="P8RNLkXZRYdzx4F_NjcB-10" value="Редактирование слова" style="ellipse;whiteSpace=wrap;html=1;" vertex="1" parent="1">
          <mxGeometry x="360" y="250" width="120" height="40" as="geometry" />
        </mxCell>
        <mxCell id="P8RNLkXZRYdzx4F_NjcB-11" value="Удаление слова" style="ellipse;whiteSpace=wrap;html=1;" vertex="1" parent="1">
          <mxGeometry x="360" y="300" width="120" height="40" as="geometry" />
        </mxCell>
        <mxCell id="P8RNLkXZRYdzx4F_NjcB-12" value="Загрузка множества слов за раз" style="ellipse;whiteSpace=wrap;html=1;" vertex="1" parent="1">
          <mxGeometry x="360" y="350" width="120" height="40" as="geometry" />
        </mxCell>
      </root>
    </mxGraphModel>
  </diagram>
</mxfile>
